<?xml version="1.0" encoding="utf-8"?>
<!-- Svg Vector Icons : http://www.onlinewebfonts.com/icon -->
<!DOCTYPE svg PUBLIC "-//W3C//DTD SVG 1.1//EN" "http://www.w3.org/Graphics/SVG/1.1/DTD/svg11.dtd">
<svg version="1.1" xmlns="http://www.w3.org/2000/svg" xmlns:xlink="http://www.w3.org/1999/xlink" x="0px" y="0px" viewBox="0 0 1000 1000" enable-background="new 0 0 1000 1000" xml:space="preserve">
<metadata> Svg Vector Icons : http://www.onlinewebfonts.com/icon </metadata>
<g><path d="M807,990c-10.1,0-19.8-5-25.5-13.6L500,555.2L218.5,976.4c-7.5,11.2-21.5,16.3-34.4,12.3c-13-3.9-21.8-15.8-21.8-29.3V40.6C162.3,23.7,176,10,193,10h614c17,0,30.7,13.7,30.7,30.6v918.7c0,13.5-8.8,25.4-21.8,29.3C813,989.6,810,990,807,990z M500,469.4c10.3,0,19.8,5.1,25.5,13.6l250.8,375.2v-787H223.7v787L474.5,483C480.2,474.5,489.7,469.4,500,469.4z"/></g>
</svg>